# xmcd CD database file
# Copyright (C) 1997 Ti Kan
# 
# Track frame offsets:
#     150
#     14833
#     27651
#     39395
#     54745
#     64396
#     82584
#     101052
#     112580
#     123230
#     134938
#     153875
#     162439
#     175183
#     190165
#     202560
#     216490
#     228143
#     249683
# 
# Disc length: 3422 seconds
# 
# Revision: 1
# Processed by: cddbd v1.4b41PL1 Copyright (c) Steve Scherf et al.
# Submitted via: DiscPlay 4.0.4
# 
DISCID=050d5c13
DTITLE=Gaither Gospel Series - The Gatlin Brothers
DYEAR=1900
DGENRE=
TTITLE0=The Prodigal Son
TTITLE1=Somebody Loves Me
TTITLE2=I've Got That Old Time Religion
TTITLE3=Jesus Loves Me This I Know
TTITLE4=I Want To Be More Like Jesus
TTITLE5=Heartbreak Ridge And New Hope
TTITLE6=What A Savior
TTITLE7=What A Precious Friend Is He
TTITLE8=Walk With Me
TTITLE9=I Wouldn't Take Nothing For My Journey
TTITLE10=Who Am I
TTITLE11=Heavens Jubillee
TTITLE12=Sweeter Each Day
TTITLE13=Hide Me, Rock Of Ages
TTITLE14=Wasted Years
TTITLE15=He Touched Me
TTITLE16=I Will Live For Jesus
TTITLE17=The Robe Of Calvary
TTITLE18=He Looked Beyond My Fault
EXTD=
EXTT0=
EXTT1=
EXTT2=
EXTT3=
EXTT4=
EXTT5=
EXTT6=
EXTT7=
EXTT8=
EXTT9=
EXTT10=
EXTT11=
EXTT12=
EXTT13=
EXTT14=
EXTT15=
EXTT16=
EXTT17=
EXTT18=
PLAYORDER=
